# xmcd CD database file
#
# Track frame offsets:
#	150
#	20177
#	40587
#	56090
#	74314
#	100744
#	116852
#
# Disc length: 1970 seconds
#
# Revision: 0
# Processed by: cddbd v1.5.2PL0 Copyright (c) Steve Scherf et al.
# Submitted via: CDex 1.51
#
DISCID=5f07b007
DTITLE=土岐麻子 - Summerin'
DYEAR=2008
DGENRE=Jazz
TTITLE0=LIBERTINE (オリジナル)
TTITLE1=サマーヌード (真心ブラザーズ カバー)
TTITLE2=小麦色のマーメイド (松田聖子 カバー)
TTITLE3=Reach Out,I'll Be There (Four Tops カバー)
TTITLE4=La Isla Bonita (マドンナ カバー)
TTITLE5=smilin' (オリジナル)
TTITLE6=都会 (大貫妙子 カバー)
EXTD=YEAR: 2008
EXTT0=
EXTT1=
EXTT2=
EXTT3=
EXTT4=
EXTT5=
EXTT6=
PLAYORDER=
